<svg id="f8bf3337-b4e7-40df-a84a-ac8f84e61bc1" data-name="Слой 1" xmlns="http://www.w3.org/2000/svg" viewBox="0 0 473.69 438.89"><defs><style>.b134a1c3-09a6-40fc-9559-be31e6a12a69{fill:#fff;stroke:#fff;stroke-miterlimit:10;stroke-width:5px;}</style></defs><path class="b134a1c3-09a6-40fc-9559-be31e6a12a69" d="M95.88,418.11a72.26,72.26,0,0,0,7.25-.37c-4,.5-8.09.84-12.2,1l-.81-.87Q93,418.11,95.88,418.11Z" transform="translate(-8.96 -34.71)"/><path class="b134a1c3-09a6-40fc-9559-be31e6a12a69" d="M276.11,469a69,69,0,0,0,7.1-8.35q-2.61,4.07-5.5,7.94Z" transform="translate(-8.96 -34.71)"/><path class="b134a1c3-09a6-40fc-9559-be31e6a12a69" d="M291.44,445.66l.07,0c-.18.39-.37.79-.57,1.19C291.12,446.48,291.28,446.08,291.44,445.66Z" transform="translate(-8.96 -34.71)"/><path class="b134a1c3-09a6-40fc-9559-be31e6a12a69" d="M384.85,57.33c-.91-.18-1.83-.33-2.75-.47h0a70.49,70.49,0,0,0-10.44-.77h-1q3.48-.21,7-.21c1.51,0,3,0,4.51.08h0C383.1,56.41,384,56.87,384.85,57.33Z" transform="translate(-8.96 -34.71)"/><path class="b134a1c3-09a6-40fc-9559-be31e6a12a69" d="M479.56,248.17h0q-.68-9.54-2.15-18.86a221.25,221.25,0,0,0-8-33.65Q467,188,464,180.57a223.92,223.92,0,0,0-22.11-41.76l-1.66-2.42a226,226,0,0,0-91.06-76.6q2.71-.93,5.52-1.63a115.59,115.59,0,0,0-85.48,73.51A79.82,79.82,0,0,1,305,145.18q-.69-2.31-1.2-4.68A107.14,107.14,0,0,1,339.94,180v0c.66,1.24,1.29,2.49,1.89,3.76,1,0,1.95,0,2.94,0a136.6,136.6,0,0,1,128.37,90.2,64,64,0,0,1,2.62,8.08.37.37,0,0,1,0,.14,68.25,68.25,0,0,1,2.11,14.11c.17-1.2.34-2.41.49-3.62a0,0,0,0,1,0,0,228.24,228.24,0,0,0,1.74-28.2Q480.14,256.21,479.56,248.17Z" transform="translate(-8.96 -34.71)"/><path class="b134a1c3-09a6-40fc-9559-be31e6a12a69" d="M461.88,250.15a136.31,136.31,0,0,0-117.11-66.46c-1,0-2,0-2.94,0,.91,1.86,1.76,3.76,2.55,5.68A107,107,0,0,1,347,263.05q-1.56,4.79-3.58,9.37-1.94,3.93-4.1,7.73a149.36,149.36,0,0,1-14.42,21q-4,4.9-8.45,9.43a148.63,148.63,0,0,1-24,20,136.73,136.73,0,0,1-.91,115.18c-.18.39-.37.79-.57,1.19h0a69,69,0,0,1-7.73,13.76q-2.61,4.07-5.5,7.94A252.31,252.31,0,0,0,318.65,454h0a255.29,255.29,0,0,0,85.55-63.68h0a0,0,0,0,0,0,0h0A257,257,0,0,0,422,367.58a253.06,253.06,0,0,0,42.87-108.77,69.16,69.16,0,0,1,8.27,15.08A135.19,135.19,0,0,0,461.88,250.15Z" transform="translate(-8.96 -34.71)"/><path class="b134a1c3-09a6-40fc-9559-be31e6a12a69" d="M292.42,330.52a148.09,148.09,0,0,1-79.4,25c-1.05,0-2.11,0-3.16,0q-4.38,0-8.71-.25a136.43,136.43,0,0,1-91.44,61.48c-2.14.43-4.31.77-6.53,1h-.05c-4,.5-8.09.84-12.2,1,.73.78,1.48,1.56,2.23,2.34a252.93,252.93,0,0,0,69.59,25.62,256.28,256.28,0,0,0,121.71-4.24c3-.86,6-1.77,9-2.73-.59,2-1.28,4-2.05,5.94l.07,0a136.73,136.73,0,0,0,.91-115.18Z" transform="translate(-8.96 -34.71)"/><path class="b134a1c3-09a6-40fc-9559-be31e6a12a69" d="M344.43,42.23h0a180.41,180.41,0,0,0-42.37-5q-8.49,0-16.77.78c-1.56.14-3.1.3-4.65.48l-.52.07c-2.85.35-5.69.76-8.5,1.24h0c-2.41.41-4.79.86-7.17,1.38a.57.57,0,0,0-.15,0A216.5,216.5,0,0,0,209,60.63h0a125,125,0,0,0-70.17,80.51h0a124.74,124.74,0,0,0-4.43,26.68q-.2,3.53-.2,7.09a125.21,125.21,0,0,0,2.09,22.82,122.64,122.64,0,0,0,4.24,16.49A124.92,124.92,0,0,0,191,279.55l0,0a103.05,103.05,0,0,0,21.37,7.64c3.17.75,6.4,1.36,9.67,1.82a104.92,104.92,0,0,0,14.38,1c1.77,0,3.53,0,5.29-.13a80.4,80.4,0,0,1,17.85-158.79,81.3,81.3,0,0,1,9.68.58,115.59,115.59,0,0,1,85.48-73.51h.06a68.77,68.77,0,0,1,9.05-1.64c2.24-.24,4.51-.39,6.81-.42h0q3.48-.21,7-.21c1.51,0,3,0,4.51.08A178.88,178.88,0,0,0,344.43,42.23Z" transform="translate(-8.96 -34.71)"/><path class="b134a1c3-09a6-40fc-9559-be31e6a12a69" d="M198.74,355.09h0q-8-1-15.87-2.67-8.9-1.83-17.52-4.38t-17-5.83l-.06,0h0l-.07,0s-.06,0-.08,0q-4.47-1.75-8.86-3.7h0A215.58,215.58,0,0,1,71.56,291q-2.52-2.62-5-5.32a215.24,215.24,0,0,1-34.77-52.16,213,213,0,0,1-16.65-50.84A216.21,216.21,0,0,0,33.61,317.88q2.43,4.92,5.09,9.69v0c1.25,2.23,2.53,4.42,3.85,6.61a216.5,216.5,0,0,0,81.71,77.86,68.94,68.94,0,0,1-14.56,4.67,136.43,136.43,0,0,0,91.44-61.48Z" transform="translate(-8.96 -34.71)"/><text x="-8.96" y="-34.71"/></svg>